<svg aria-hidden="true" style="position: absolute; width: 0; height: 0; overflow: hidden;" version="1.1" xmlns="http://www.w3.org/2000/svg" xmlns:xlink="http://www.w3.org/1999/xlink">
<defs>
<symbol id="icon-arrow" viewBox="0 0 24 24">
<path d="M11.67 2.595c-0.456 0-0.825 0.369-0.825 0.825v0 15.634l-3.091-3.092c-0.149-0.149-0.356-0.242-0.584-0.242-0.456 0-0.825 0.369-0.825 0.825 0 0.228 0.092 0.434 0.242 0.584l3.704 3.705c0.353 0.353 0.84 0.571 1.379 0.571s1.026-0.218 1.379-0.571l3.705-3.705c0.149-0.149 0.242-0.356 0.242-0.584 0-0.456-0.369-0.825-0.825-0.825-0.228 0-0.434 0.092-0.583 0.242l-3.092 3.092v-15.634c0-0.456-0.369-0.825-0.825-0.825v0z"></path>
</symbol>
<symbol id="icon-css3" viewBox="0 0 24 24">
<path d="M1.642 0.188l1.886 21.165 8.46 2.359 8.483-2.368 1.887-21.157h-20.716zM18.441 5.037l-0.628 7.050 0.002 0.039-0.003 0.087-0.445 4.93-0.050 0.438-5.321 1.473-5.308-1.479-0.36-4.076h2.603l0.185 2.073 2.884 0.783 2.896-0.793 0.305-3.376h-6.053l-0.051-0.57-0.119-1.337-0.062-0.717h6.516l0.237-2.626h-9.924l-0.052-0.57-0.118-1.337-0.062-0.718h12.99l-0.062 0.725z"></path>
</symbol>
<symbol id="icon-docker" viewBox="0 0 24 24">
<path d="M23.4 9.769c-0.806-0.469-1.875-0.525-2.775-0.263-0.113-0.975-0.75-1.819-1.5-2.418l-0.3-0.244-0.262 0.3c-0.507 0.581-0.657 1.556-0.582 2.306 0.056 0.544 0.225 1.106 0.563 1.556-0.263 0.15-0.544 0.357-0.806 0.45-0.526 0.188-1.107 0.375-1.67 0.375h-1.256v-2.643h-2.437v-4.688h-2.813v2.25h-4.687v2.438h-2.438v2.624h-2.1l-0.037 0.282c-0.094 1.2 0.056 2.362 0.562 3.469l0.207 0.412 0.018 0.037c1.482 2.513 4.070 3.563 6.9 3.563 5.476 0 9.994-2.456 12.057-7.612 1.387 0.075 2.812-0.338 3.487-1.67l0.169-0.337-0.3-0.187zM5.25 7.312h1.875v2.063h-1.875v-2.063zM7.706 15.6c-0.002 0.32-0.261 0.579-0.581 0.581h-0c-0.32-0.002-0.579-0.261-0.581-0.581v-0c0-0.319 0.262-0.581 0.581-0.581 0.319 0.018 0.581 0.262 0.581 0.581zM5.25 9.75h1.875v2.063h-1.875v-2.063zM2.812 9.75h2.063v2.063h-2.063v-2.063zM8.006 19.163c-2.962-0.020-4.556-1.013-5.869-2.326 0.394 0.020 0.77 0.038 1.107 0.038 0.3 0 0.6 0 0.881-0.019 0.731-0.037 1.369-0.131 1.894-0.281 0.431 0.994 1.218 1.913 2.625 2.588h-0.638zM9.562 11.813h-2.062v-2.063h2.062v2.063zM9.562 9.375h-2.062v-2.063h2.062v2.063zM12 11.813h-2.063v-2.063h2.063v2.063zM12 9.375h-2.063v-2.063h2.063v2.063zM12 6.937h-2.063v-2.061h2.063v2.063zM14.438 11.812h-2.063v-2.062h2.063v2.063zM7.275 15.225c-0.044-0.022-0.095-0.036-0.15-0.037h-0c-0.227 0.002-0.411 0.185-0.413 0.412v0c0 0.225 0.188 0.412 0.413 0.412 0.227-0.002 0.41-0.185 0.412-0.412v-0c-0.001-0.055-0.015-0.106-0.038-0.152l0.001 0.002c-0.038 0.056-0.075 0.094-0.15 0.094-0 0-0.001 0-0.001 0-0.093 0-0.168-0.075-0.168-0.168 0-0 0-0.001 0-0.001v0c0.019-0.075 0.056-0.131 0.094-0.15z"></path>
</symbol>
<symbol id="icon-git" viewBox="0 0 24 24">
<path d="M23.39 10.946l-10.336-10.334c-0.276-0.276-0.657-0.446-1.078-0.446s-0.802 0.171-1.078 0.446v0l-2.145 2.146 2.723 2.722c0.174-0.061 0.374-0.096 0.582-0.096 1 0 1.81 0.81 1.81 1.81 0 0.213-0.037 0.417-0.104 0.607l0.004-0.013 2.623 2.624c0.176-0.063 0.379-0.099 0.591-0.099 1.001 0 1.813 0.812 1.813 1.813s-0.812 1.813-1.813 1.813c-0.501 0-0.955-0.203-1.283-0.532l-0-0c-0.328-0.328-0.531-0.782-0.531-1.282 0-0.249 0.050-0.486 0.141-0.703l-0.004 0.012-2.447-2.447v6.44c0.606 0.302 1.015 0.918 1.015 1.628 0 1.002-0.812 1.814-1.814 1.814-0.502 0-0.957-0.204-1.286-0.534l-0-0c-0.708-0.71-0.767-1.858-0.058-2.566 0.175-0.175 0.347-0.307 0.535-0.396v-6.498c-0.208-0.105-0.385-0.237-0.535-0.395l-0.001-0.001c-0.536-0.536-0.636-1.324-0.361-1.983l-2.669-2.684-7.079 7.086c-0.275 0.276-0.444 0.656-0.444 1.076 0 0.422 0.171 0.804 0.448 1.080l10.336 10.334c0.276 0.276 0.657 0.446 1.079 0.446s0.802-0.171 1.078-0.446v0l10.286-10.286c0.276-0.276 0.447-0.657 0.447-1.079s-0.17-0.802-0.446-1.078l0 0z"></path>
</symbol>
<symbol id="icon-github" viewBox="0 0 24 24">
<path d="M12 0.957c-6.253 0-11.323 5.069-11.323 11.322 0 5.003 3.245 9.247 7.743 10.745 0.566 0.105 0.774-0.246 0.774-0.545 0-0.27-0.010-1.162-0.016-2.108-3.15 0.685-3.814-1.336-3.814-1.336-0.515-1.309-1.257-1.657-1.257-1.657-1.028-0.702 0.077-0.688 0.077-0.688 1.137 0.080 1.736 1.167 1.736 1.167 1.010 1.73 2.649 1.23 3.295 0.941 0.101-0.731 0.395-1.231 0.719-1.514-2.515-0.286-5.16-1.257-5.16-5.595 0-1.237 0.443-2.247 1.167-3.040-0.117-0.285-0.505-1.436 0.11-2.996 0 0 0.95-0.304 3.114 1.16 0.85-0.24 1.826-0.379 2.834-0.38h0.001c0.962 0.004 1.931 0.13 2.836 0.381 2.161-1.465 3.11-1.16 3.11-1.16 0.617 1.559 0.23 2.71 0.112 2.996 0.726 0.793 1.165 1.803 1.165 3.040 0 4.348-2.648 5.305-5.17 5.586 0.407 0.351 0.768 1.040 0.768 2.097 0 1.515-0.013 2.734-0.013 3.107 0 0.301 0.204 0.654 0.778 0.543 4.496-1.499 7.737-5.741 7.737-10.742 0-6.255-5.070-11.324-11.323-11.324z"></path>
<path d="M4.966 17.214c-0.025 0.056-0.114 0.073-0.194 0.034-0.083-0.036-0.129-0.113-0.102-0.17 0.024-0.058 0.113-0.074 0.195-0.035 0.082 0.037 0.13 0.115 0.1 0.17zM5.424 17.725c-0.053 0.050-0.159 0.027-0.23-0.052-0.075-0.079-0.089-0.184-0.034-0.235 0.056-0.050 0.158-0.026 0.233 0.052 0.074 0.080 0.088 0.185 0.032 0.236zM5.871 18.377c-0.070 0.049-0.183 0.004-0.253-0.097s-0.070-0.222 0.002-0.27c0.070-0.049 0.182-0.005 0.253 0.095 0.069 0.102 0.069 0.223-0.002 0.272zM6.482 19.007c-0.061 0.069-0.194 0.050-0.29-0.043-0.1-0.091-0.127-0.22-0.065-0.29 0.063-0.068 0.196-0.049 0.293 0.044 0.1 0.091 0.129 0.221 0.063 0.29zM7.326 19.373c-0.027 0.089-0.154 0.13-0.283 0.091-0.128-0.038-0.212-0.142-0.186-0.232 0.027-0.090 0.155-0.131 0.284-0.090 0.128 0.038 0.212 0.141 0.185 0.231zM8.253 19.441c0.003 0.093-0.106 0.17-0.24 0.172-0.136 0.004-0.245-0.072-0.247-0.164 0-0.094 0.107-0.17 0.242-0.173s0.245 0.072 0.245 0.165zM9.115 19.294c0.016 0.091-0.077 0.185-0.211 0.21-0.131 0.024-0.253-0.033-0.27-0.123-0.016-0.093 0.080-0.187 0.21-0.21 0.134-0.024 0.254 0.031 0.271 0.123z"></path>
</symbol>
<symbol id="icon-html5" viewBox="0 0 24 24">
<path d="M3.57 21.352l-1.878-21.040h20.613l-1.878 21.037-8.44 2.34-8.419-2.337zM8.584 9.835l-0.234-2.642h9.875l0.231-2.58h-12.926l0.696 7.803h8.944l-0.3 3.347-2.88 0.777-2.874-0.776-0.184-2.058h-2.59l0.361 4.052 5.286 1.467 0.012-0.003 5.281-1.464 0.646-7.23 0.062-0.693h-9.405z"></path>
</symbol>
<symbol id="icon-java" viewBox="0 0 24 24">
<path d="M8.928 18.398c-3.598 1.005 2.19 3.082 6.772 1.119-0.75-0.292-1.29-0.629-1.29-0.629-2.042 0.387-2.99 0.417-4.845 0.205-1.53-0.175-0.637-0.695-0.637-0.695zM15.151 16.436c-2.708 0.521-4.272 0.505-6.254 0.3-1.532-0.158-0.529-0.9-0.529-0.9-3.963 1.315 2.206 2.807 7.745 1.187-0.374-0.135-0.694-0.335-0.963-0.588l0.001 0.001zM17.273 5.078s-8.012 2-4.185 6.41c1.13 1.3-0.296 2.47-0.296 2.47s2.866-1.48 1.55-3.333c-1.23-1.728-2.173-2.586 2.931-5.547zM19.148 20.293s0.662 0.546-0.729 0.967c-2.644 0.801-11.007 1.043-13.33 0.032-0.835-0.363 0.73-0.867 1.223-0.973 0.514-0.111 0.807-0.091 0.807-0.091-0.928-0.654-6.002 1.284-2.576 1.84 9.341 1.514 17.028-0.682 14.605-1.775zM15.938 14.605c0.449-0.306 1.069-0.572 1.069-0.572s-1.767 0.316-3.528 0.464c-2.155 0.18-4.466 0.216-5.627 0.061-2.747-0.367 1.506-1.378 1.506-1.378s-1.652-0.111-3.683 0.871c-2.402 1.162 5.942 1.691 10.263 0.554zM16.989 17.445c-0.020 0.055-0.088 0.116-0.088 0.116 5.864-1.542 3.708-5.434 0.904-4.449-0.245 0.087-0.375 0.29-0.375 0.29s0.156-0.063 0.503-0.135c1.417-0.296 3.448 1.897-0.944 4.178zM12.034 13.138c-0.865-1.956-3.799-3.666 0.001-6.667 4.738-3.741 2.307-6.173 2.307-6.173 0.98 3.864-3.46 5.030-5.062 7.437-1.092 1.64 0.536 3.402 2.754 5.403zM17.148 22.841c-3.598 0.677-8.035 0.598-10.667 0.164 0 0 0.54 0.446 3.31 0.624 4.213 0.27 10.687-0.15 10.84-2.144 0 0-0.295 0.756-3.483 1.356z"></path>
</symbol>
<symbol id="icon-javascript" viewBox="0 0 24 24">
<path d="M23.736 0.264h-23.472v23.472h23.472v-23.472zM18.876 15.329c2.069 0.839 2.767 1.738 2.94 2.81 0.164 0.92-0.041 1.518-0.072 1.608-0.763 2.61-5.018 2.695-6.718 0.97l-0.146-0.163c-0.278-0.308-0.47-0.521-0.653-0.923l0.91-0.523 0.873-0.506c0.477 0.735 0.92 1.138 1.713 1.303 1.078 0.132 2.162-0.238 1.92-1.383-0.146-0.542-0.864-0.846-1.702-1.2-0.607-0.258-1.278-0.542-1.837-0.962-1.353-0.908-1.67-3.115-0.558-4.375 0.37-0.467 1.002-0.814 1.664-0.982l0.692-0.090c1.327-0.026 2.157 0.324 2.766 1.005 0.17 0.171 0.308 0.357 0.567 0.758l-0.364 0.232c-0.386 0.245-0.551 0.35-1.354 0.87-0.217-0.466-0.576-0.758-0.955-0.885-0.589-0.179-1.332 0.015-1.486 0.638-0.054 0.192-0.042 0.37 0.042 0.687 0.194 0.44 0.755 0.68 1.343 0.93 0.139 0.059 0.279 0.118 0.416 0.181zM10.829 11.052h2.195c0 0.67 0.001 1.339 0.003 2.007 0.002 1.347 0.005 2.692-0.003 4.037 0 0.183 0.004 0.362 0.006 0.539 0.017 1.020 0.032 1.947-0.394 2.732-0.346 0.703-1.006 1.165-1.772 1.388-1.176 0.27-2.3 0.116-3.137-0.386-0.56-0.344-0.997-0.873-1.294-1.482l1.785-1.093c0.040 0.049 0.076 0.105 0.105 0.164l0.002 0.005 0.018 0.032c0.228 0.381 0.424 0.651 0.81 0.84 0.38 0.13 1.212 0.213 1.533-0.454 0.156-0.27 0.148-1.030 0.139-1.939-0.003-0.23-0.005-0.47-0.005-0.714l0.009-5.676z"></path>
</symbol>
<symbol id="icon-linux" viewBox="0 0 24 24">
<path d="M21.342 19.612c-0.337-0.277-0.68-0.548-0.995-0.849-0.351-0.335-0.571-0.74-0.523-1.252 0.027-0.295-0.040-0.549-0.397-0.647 0.084-0.217 0.163-0.362 0.194-0.516 0.035-0.173 0.034-0.354 0.038-0.532 0.050-1.867-0.625-3.504-1.624-5.031-0.589-0.897-1.060-1.574-1.545-2.239l0.114 0.164c-0.767-1.067-1.042-2.265-1.056-3.56-0.009-0.634-0.082-1.246-0.214-1.835l0.011 0.059c-0.246-1.132-0.853-2.018-1.953-2.493-0.468-0.213-1.014-0.337-1.59-0.337-0.362 0-0.712 0.049-1.044 0.141l0.028-0.006c-1.294 0.338-2.076 1.3-2.062 2.642 0.014 1.29 0.079 2.583 0.173 3.871 0.054 0.73-0.058 1.36-0.542 1.939-0.423 0.515-0.847 1.089-1.239 1.686l-0.047 0.076c-0.23 0.346-0.435 0.722-0.577 1.112-0.388 1.062-0.745 2.132-1.365 3.094-0.229 0.356-0.255 0.754-0.092 1.162 0.042 0.105 0.068 0.268 0.017 0.353-0.442 0.732-0.94 1.377-1.888 1.518-0.745 0.11-0.782 0.246-0.76 1.014 0.020 0.626 0.012 1.258-0.052 1.88-0.068 0.666 0.002 0.847 0.645 1.007 1.486 0.369 2.984 0.684 4.405 1.285 0.605 0.256 1.212 0.167 1.7-0.33 0.508-0.52 1.151-0.723 1.845-0.724 1.179-0.001 2.358 0.056 3.537 0.069 0.319 0.004 0.502 0.122 0.63 0.412 0.158 0.355 0.424 0.616 0.834 0.662 0.786 0.086 1.502-0.030 2.098-0.63 0.71-0.723 1.558-1.307 2.502-1.711l0.051-0.019c0.278-0.116 0.54-0.299 0.77-0.497 0.418-0.36 0.395-0.59-0.026-0.937zM11.705 4.522c0.142-0.487 0.476-0.804 0.983-0.9 0.427-0.080 0.788 0.13 1.057 0.609 0.29 0.517 0.385 1.057 0.138 1.623-0.203 0.464-0.298 0.508-0.773 0.35-0.089-0.029-0.176-0.064-0.333-0.122 0.132-0.111 0.216-0.194 0.312-0.259 0.212-0.145 0.272-0.348 0.252-0.59-0.026-0.318-0.276-0.599-0.532-0.595-0.23 0.003-0.424 0.218-0.45 0.546-0.016 0.204 0.018 0.413 0.033 0.673-0.647-0.192-0.884-0.66-0.687-1.334zM9.315 4.1c0.238-0.361 0.599-0.433 0.956-0.192 0.38 0.258 0.665 0.986 0.518 1.421-0.054 0.158-0.211 0.281-0.322 0.42l-0.113-0.070c-0.043-0.235-0.052-0.485-0.142-0.7-0.057-0.136-0.236-0.222-0.36-0.33-0.117 0.138-0.317 0.27-0.33 0.417-0.016 0.204 0.090 0.428 0.182 0.625 0.059 0.124 0.188 0.215 0.321 0.36l-0.36 0.282c-0.565-0.506-0.734-1.653-0.35-2.233zM16.376 16.14c-0.038 0.487-0.094 0.508-0.584 0.58-0.349 0.051-0.443 0.142-0.46 0.556-0.020 0.484-0.020 0.969-0.003 1.453 0.012 0.332-0.1 0.593-0.329 0.824-1.268 1.286-2.783 1.895-4.596 1.674-0.781-0.096-1.293-0.572-1.705-1.245 0.183-0.068 0.32-0.114 0.452-0.168 0.585-0.238 0.695-0.741 0.227-1.177-0.353-0.33-0.747-0.615-1.126-0.917-0.366-0.291-0.738-0.577-1.104-0.868-0.313-0.248-0.433-0.568-0.44-0.973-0.001-0.035-0.001-0.077-0.001-0.118 0-0.961 0.217-1.871 0.605-2.684l-0.016 0.038c0.362-0.789 0.643-1.615 0.983-2.416 0.175-0.412 0.357-0.835 0.614-1.197 0.247-0.348 0.4-0.688 0.373-1.114-0.016-0.24-0.003-0.48-0.003-0.72l0.132-0.067c0.214 0.185 0.432 0.366 0.642 0.555 0.759 0.684 1.48 0.715 2.31 0.126 0.354-0.252 0.737-0.463 1.111-0.685 0.094-0.055 0.205-0.080 0.363-0.138l1.195 2.812c0.201 0.473 0.363 0.969 0.612 1.415 0.501 0.896 0.768 1.84 0.764 2.864-0.003 0.53 0.025 1.063-0.016 1.59z"></path>
</symbol>
<symbol id="icon-mail" viewBox="0 0 24 24">
<path d="M22.75 9c0-3.176-2.574-5.75-5.75-5.75v0h-10c-3.176 0-5.75 2.574-5.75 5.75v0 6c0 3.176 2.574 5.75 5.75 5.75v0h10c3.176 0 5.75-2.574 5.75-5.75v0-6zM17 4.75c2.347 0 4.25 1.903 4.25 4.25v0 6c0 2.347-1.903 4.25-4.25 4.25v0h-10c-2.347 0-4.25-1.903-4.25-4.25v0-6c0-2.347 1.903-4.25 4.25-4.25v0h10z"></path>
<path d="M18.6 8.55c-0.138-0.183-0.355-0.3-0.6-0.3-0.17 0-0.326 0.056-0.452 0.151l0.002-0.001-4.8 3.6c-0.206 0.156-0.467 0.25-0.75 0.25s-0.544-0.094-0.753-0.252l0.003 0.002-4.8-3.6c-0.124-0.094-0.28-0.15-0.45-0.15-0.414 0-0.75 0.336-0.75 0.75 0 0.245 0.117 0.462 0.298 0.599l0.002 0.001 4.8 3.6c0.454 0.343 1.028 0.55 1.65 0.55s1.196-0.207 1.657-0.555l-0.007 0.005 4.8-3.6c0.183-0.138 0.3-0.355 0.3-0.6 0-0.17-0.056-0.326-0.151-0.452l0.001 0.002z"></path>
</symbol>
<symbol id="icon-mysql" viewBox="0 0 24 24">
<path d="M21.928 18.339c-1.287-0.035-2.27 0.085-3.11 0.439-0.239 0.1-0.62 0.103-0.659 0.402 0.132 0.138 0.152 0.343 0.256 0.512 0.201 0.325 0.54 0.76 0.842 0.988 0.33 0.25 0.67 0.516 1.024 0.732 0.63 0.384 1.333 0.603 1.94 0.988 0.357 0.226 0.712 0.512 1.060 0.768 0.173 0.126 0.288 0.323 0.512 0.402v-0.036c-0.117-0.15-0.148-0.356-0.256-0.513l-0.475-0.475c-0.482-0.62-1.036-1.151-1.659-1.594l-0.024-0.016c-0.5-0.36-1.62-0.845-1.83-1.427l-0.036-0.036c0.355-0.040 0.77-0.169 1.098-0.256 0.55-0.148 1.041-0.11 1.61-0.256l0.767-0.22v-0.146c-0.287-0.295-0.491-0.685-0.804-0.951-0.82-0.698-1.714-1.395-2.634-1.976-0.511-0.322-1.142-0.532-1.683-0.805-0.182-0.092-0.502-0.14-0.622-0.293-0.285-0.362-0.44-0.821-0.659-1.244-0.459-0.884-0.91-1.85-1.317-2.78-0.277-0.635-0.459-1.26-0.805-1.83-1.66-2.73-3.449-4.38-6.219-6-0.59-0.344-1.299-0.48-2.049-0.658l-1.207-0.074c-0.246-0.102-0.501-0.402-0.732-0.548-0.917-0.58-3.271-1.841-3.95-0.183-0.431 1.046 0.639 2.067 1.023 2.597 0.27 0.372 0.613 0.79 0.805 1.208 0.127 0.275 0.148 0.55 0.257 0.841 0.265 0.717 0.497 1.497 0.84 2.159 0.175 0.335 0.366 0.688 0.586 0.987 0.135 0.184 0.366 0.265 0.402 0.55-0.225 0.315-0.238 0.806-0.365 1.207-0.572 1.803-0.356 4.043 0.476 5.378 0.255 0.41 0.856 1.288 1.682 0.95 0.723-0.293 0.562-1.206 0.769-2.011 0.046-0.183 0.018-0.317 0.11-0.44v0.037l0.658 1.317c0.488 0.785 1.352 1.606 2.085 2.16 0.38 0.286 0.68 0.782 1.171 0.95v-0.036h-0.036c-0.096-0.149-0.245-0.21-0.366-0.33-0.299-0.29-0.575-0.6-0.826-0.93l-0.015-0.020c-0.667-0.907-1.256-1.897-1.793-2.927-0.257-0.493-0.48-1.036-0.696-1.537-0.083-0.193-0.082-0.486-0.255-0.585-0.237 0.367-0.586 0.664-0.769 1.097-0.292 0.693-0.33 1.538-0.439 2.415-0.064 0.023-0.035 0.007-0.073 0.036-0.51-0.123-0.688-0.647-0.878-1.097-0.479-1.138-0.568-2.97-0.146-4.28 0.109-0.34 0.601-1.407 0.402-1.72-0.095-0.313-0.41-0.494-0.585-0.732-0.215-0.296-0.411-0.633-0.571-0.989l-0.015-0.036c-0.392-0.887-0.575-1.883-0.988-2.78-0.197-0.429-0.53-0.863-0.805-1.244-0.303-0.422-0.642-0.733-0.878-1.244-0.083-0.181-0.197-0.472-0.073-0.659 0.040-0.125 0.095-0.178 0.22-0.219 0.212-0.164 0.803 0.054 1.024 0.146 0.586 0.244 1.076 0.476 1.573 0.805 0.239 0.158 0.48 0.464 0.768 0.549h0.33c0.515 0.118 1.092 0.037 1.573 0.183 0.85 0.258 1.613 0.66 2.305 1.097 2.108 1.332 3.833 3.227 5.012 5.488 0.19 0.364 0.272 0.712 0.439 1.098 0.337 0.779 0.762 1.58 1.097 2.341 0.335 0.76 0.661 1.527 1.135 2.16 0.248 0.331 1.21 0.51 1.646 0.694 0.306 0.13 0.808 0.265 1.098 0.44 0.553 0.333 1.090 0.731 1.61 1.097 0.259 0.183 1.057 0.584 1.097 0.915zM5.574 4.399c-0.012-0-0.025-0-0.039-0-0.22 0-0.433 0.027-0.637 0.078l0.018-0.004v0.036h0.036c0.128 0.263 0.354 0.433 0.512 0.659l0.366 0.768 0.037-0.036c0.226-0.16 0.33-0.415 0.329-0.805-0.091-0.096-0.104-0.215-0.183-0.33-0.104-0.151-0.307-0.238-0.439-0.365z"></path>
</symbol>
<symbol id="icon-nodejs" viewBox="0 0 24 24">
<path d="M21.145 5.688l-8.269-4.801c-0.249-0.14-0.546-0.223-0.863-0.223s-0.614 0.083-0.872 0.227l0.009-0.005-8.356 4.8c-0.538 0.31-0.919 0.892-0.919 1.514v9.59c0 0.622 0.39 1.204 0.929 1.515l2.208 1.254c1.055 0.52 1.428 0.52 1.908 0.52 1.563 0 2.455-0.945 2.455-2.593v-9.467c0-0.134-0.070-0.332-0.2-0.332h-1.055c-0.134 0-0.432 0.198-0.432 0.332v9.467c0 0.73-0.661 1.457-1.896 0.84l-2.282-1.315c-0.080-0.044-0.134-0.126-0.136-0.222v-9.589c0-0.090 0.104-0.18 0.184-0.227l8.33-4.793c0.039-0.021 0.086-0.033 0.135-0.033s0.096 0.012 0.137 0.034l-0.002-0.001 8.227 4.792c0.080 0.047 0.051 0.135 0.051 0.228v9.59c0 0.090 0.035 0.18-0.043 0.224l-8.266 4.796c-0.034 0.020-0.075 0.032-0.119 0.032s-0.085-0.012-0.12-0.033l0.001 0.001-2.12-1.266c-0.064-0.037-0.14-0.050-0.201-0.016-0.59 0.334-0.699 0.379-1.252 0.57-0.136 0.048-0.337 0.13 0.077 0.362l2.775 1.642c0.25 0.147 0.552 0.234 0.873 0.234s0.623-0.087 0.881-0.239l-0.008 0.004 8.228-4.797c0.539-0.314 0.794-0.893 0.794-1.516v-9.589c0-0.622-0.255-1.202-0.793-1.513zM14.608 15.271c-2.199 0-2.683-0.607-2.844-1.7-0.019-0.118-0.119-0.258-0.239-0.258h-1.074c-0.133 0-0.24 0.16-0.24 0.293 0 1.4 0.76 3.096 4.397 3.096 2.633 0 4.142-1.023 4.142-2.833 0-1.795-1.213-2.266-3.766-2.603-2.58-0.341-2.842-0.514-2.842-1.118 0-0.499 0.222-1.163 2.133-1.163 1.707 0 2.336 0.366 2.595 1.517 0.025 0.107 0.119 0.185 0.231 0.185 0 0 0.001 0 0.001 0h1.080c0.066 0 0.13-0.026 0.176-0.074 0.039-0.043 0.063-0.1 0.063-0.163 0-0.007-0-0.014-0.001-0.021l0 0.001c-0.167-1.982-1.483-2.905-4.146-2.905-2.368 0-3.78 1-3.78 2.676 0 1.819 1.405 2.321 3.678 2.546 2.72 0.267 2.932 0.664 2.932 1.2 0 0.928-0.746 1.324-2.496 1.324z"></path>
</symbol>
<symbol id="icon-npm" viewBox="0 0 24 24">
<path d="M0.375 7.219h23.25v8.195h-11.625v1.367h-5.168v-1.367h-6.457v-8.194zM1.667 14.049h2.583v-4.098h1.292v4.098h1.291v-5.463h-5.166v5.463zM8.124 8.586v6.828h2.584v-1.364h2.584v-5.464h-5.168zM10.708 9.953h1.292v2.73h-1.292v-2.73zM14.584 8.586v5.463h2.584v-4.098h1.291v4.098h1.292v-4.098h1.292v4.098h1.292v-5.463h-7.751z"></path>
</symbol>
<symbol id="icon-spring" viewBox="0 0 24 24">
<path d="M0.319 18.488c-0.114-0.066-0.189-0.187-0.189-0.325 0-0.005 0-0.009 0-0.013l-0 0.001c0-0.225 0.169-0.394 0.394-0.394 0.002-0 0.005-0 0.007-0 0.073 0 0.142 0.021 0.2 0.057l-0.002-0.001c0.413 0.282 0.863 0.413 1.256 0.413 0.432 0 0.675-0.188 0.675-0.469v-0.018c0-0.338-0.468-0.45-0.975-0.6-0.637-0.188-1.35-0.45-1.35-1.276v-0.018c0-0.825 0.675-1.313 1.538-1.313 0.469 0 0.937 0.131 1.369 0.356 0.131 0.075 0.243 0.207 0.243 0.375-0.003 0.218-0.181 0.394-0.4 0.394-0.004 0-0.008-0-0.013-0l0.001 0c-0.076-0.001-0.147-0.022-0.208-0.057l0.002 0.001c-0.357-0.188-0.713-0.3-1.013-0.3-0.394 0-0.6 0.188-0.6 0.431v0.019c0 0.319 0.469 0.45 0.975 0.619 0.638 0.187 1.35 0.487 1.35 1.256v0.019c0 0.919-0.712 1.369-1.612 1.369-0.618-0.004-1.19-0.201-1.659-0.532l0.009 0.006zM7.461 16.781c0-0.843-0.562-1.387-1.237-1.387s-1.256 0.562-1.256 1.387v0.019c0 0.825 0.581 1.387 1.256 1.387 0.675-0.037 1.237-0.562 1.237-1.406zM4.011 15.038c0-0.282 0.207-0.507 0.488-0.507s0.506 0.225 0.506 0.506v0.3c0.319-0.45 0.769-0.806 1.463-0.806 1.012 0 2.006 0.806 2.006 2.231v0.020c0 1.424-0.975 2.23-2.006 2.23-0.713 0-1.163-0.356-1.463-0.75v1.52c-0.001 0.269-0.22 0.487-0.489 0.487-0.006 0-0.012-0-0.018-0l0.001 0c-0.001 0-0.003 0-0.004 0-0.267 0-0.484-0.217-0.484-0.484 0-0.001 0-0.003 0-0.004v0-4.743zM8.886 15.018c0-0.28 0.207-0.506 0.488-0.506s0.506 0.226 0.506 0.507v0.243c0.056-0.375 0.656-0.73 1.088-0.73 0.319 0 0.487 0.206 0.487 0.487 0 0.006 0 0.013 0 0.020 0 0.229-0.17 0.419-0.391 0.449l-0.002 0c-0.713 0.13-1.2 0.73-1.2 1.593v1.425c-0.007 0.271-0.228 0.488-0.5 0.488-0.003 0-0.005-0-0.008-0h0c-0.001 0-0.002 0-0.003 0-0.267 0-0.484-0.217-0.484-0.484 0-0.001 0-0.003 0-0.004v0-3.486zM11.905 15.020c0-0.281 0.225-0.507 0.506-0.507 0.282 0 0.507 0.226 0.507 0.507v3.487c-0 0.27-0.219 0.488-0.489 0.488-0.006 0-0.013-0-0.019-0l0.001 0c-0.005 0-0.011 0-0.017 0-0.27 0-0.489-0.219-0.489-0.488v-3.487zM13.349 15.038c0-0.28 0.225-0.506 0.506-0.506 0.002-0 0.003-0 0.005-0 0.282 0 0.512 0.225 0.52 0.505l0 0.001v0.207c0.281-0.394 0.713-0.713 1.406-0.713 1.013 0 1.594 0.656 1.594 1.65v2.325c-0 0.27-0.219 0.488-0.489 0.488-0.006 0-0.012-0-0.018-0l0.001 0c-0.281 0-0.525-0.206-0.525-0.488v-2.025c0-0.675-0.356-1.050-0.956-1.050s-1.013 0.394-1.013 1.069v2.006c0 0.282-0.225 0.488-0.525 0.488-0.005 0-0.011 0-0.017 0-0.27 0-0.489-0.219-0.489-0.488v-3.469zM19.968 18.17c-0.694 0-1.275-0.525-1.275-1.388v-0.018c0-0.844 0.581-1.388 1.275-1.388s1.293 0.563 1.293 1.387v0.020c0 0.824-0.6 1.387-1.293 1.387zM21.749 14.551c-0.001 0-0.001 0-0.002 0-0.278 0-0.504 0.226-0.504 0.504 0 0.001 0 0.001 0 0.002v-0 0.3c-0.338-0.45-0.788-0.806-1.519-0.806-1.050 0-2.063 0.806-2.063 2.25v0.019c0 1.425 1.013 2.25 2.063 2.25 0.731 0 1.2-0.357 1.519-0.75-0.056 0.787-0.544 1.181-1.407 1.181-0.506 0-0.956-0.131-1.368-0.337-0.056-0.022-0.12-0.036-0.187-0.038l-0.001-0c-0.003-0-0.007-0-0.011-0-0.23 0-0.416 0.184-0.42 0.413v0c0 0.187 0.112 0.318 0.281 0.393 0.493 0.249 1.075 0.394 1.69 0.394 0.012 0 0.024-0 0.036-0l-0.002 0c0.806 0 1.425-0.188 1.838-0.581 0.375-0.357 0.581-0.9 0.581-1.631v-3.075c-0.016-0.273-0.241-0.488-0.516-0.488-0.003 0-0.006 0-0.009 0h0zM12.918 13.332c-0.007 0.271-0.228 0.488-0.5 0.488-0.003 0-0.005-0-0.008-0h0c-0.002 0-0.004 0-0.006 0-0.272 0-0.493-0.217-0.5-0.487l-0-0.001c0.007-0.271 0.228-0.487 0.5-0.487 0.002 0 0.004 0 0.006 0h-0c0.002-0 0.005-0 0.007-0 0.272 0 0.493 0.217 0.5 0.486l0 0.001zM15.543 10.089c-1.107 1.462-3.488 0.975-5.025 1.030 0 0-0.263 0.020-0.544 0.057 0 0 0.113-0.038 0.225-0.094 1.069-0.356 1.575-0.431 2.231-0.768 1.219-0.62 2.438-1.95 2.682-3.338-0.47 1.331-1.875 2.475-3.17 2.944-0.88 0.319-2.474 0.618-2.474 0.618l-0.057-0.037c-1.087-0.506-1.125-2.813 0.863-3.544 0.862-0.319 1.688-0.15 2.625-0.356 0.994-0.225 2.156-0.956 2.625-1.913 0.525 1.557 1.162 3.938 0.019 5.4zM15.561 4.239c-0.13 0.3-0.3 0.58-0.487 0.824-0.825-0.822-1.962-1.33-3.219-1.33-0.009 0-0.018 0-0.026 0h0.001c-2.494 0-4.519 1.987-4.519 4.405 0 1.275 0.563 2.42 1.444 3.226l0.094 0.093c-0.087-0.068-0.142-0.172-0.142-0.289 0-0.090 0.032-0.172 0.086-0.236l-0 0.001c0.071-0.087 0.179-0.143 0.3-0.143 0.093 0 0.178 0.033 0.244 0.087l-0.001-0.001c0.087 0.068 0.143 0.172 0.143 0.29 0 0.090-0.032 0.172-0.086 0.236l0-0.001c-0.071 0.088-0.179 0.143-0.3 0.143-0.093 0-0.178-0.033-0.245-0.088l0.001 0.001 0.075 0.056c0.786 0.642 1.8 1.032 2.906 1.032h0c2.382 0 4.332-1.819 4.5-4.088 0.15-1.106-0.187-2.531-0.768-4.219zM23.455 14.851h-0.168v0.225h0.168c0.056 0 0.113-0.037 0.113-0.112s-0.056-0.113-0.113-0.113zM23.549 15.414l-0.169-0.263h-0.112v0.262h-0.094v-0.637h0.262c0.113 0 0.207 0.075 0.207 0.188 0 0.002 0 0.005 0 0.007 0 0.096-0.075 0.174-0.169 0.18l-0.001 0 0.169 0.262h-0.094zM23.399 14.607c-0.002-0-0.005-0-0.007-0-0.261 0-0.474 0.209-0.48 0.468v0.001c0.006 0.26 0.219 0.469 0.48 0.469 0.003 0 0.005-0 0.008-0h-0c0.002 0 0.005 0 0.008 0 0.261 0 0.474-0.209 0.48-0.468v-0.001c0-0.244-0.226-0.469-0.488-0.469zM23.399 15.657c-0.004 0-0.008 0-0.013 0-0.312 0-0.565-0.251-0.568-0.562v-0c0-0.319 0.262-0.563 0.581-0.563s0.581 0.244 0.581 0.563c-0.010 0.312-0.266 0.562-0.58 0.562-0 0-0.001 0-0.001 0h0z"></path>
</symbol>
<symbol id="icon-vscode" viewBox="0 0 24 24">
<path d="M0.685 8.446s-0.567-0.411 0.115-0.96l1.588-1.423s0.454-0.48 0.935-0.062l14.658 11.124v5.335s-0.008 0.838-1.080 0.745l-16.216-14.76z"></path>
<path d="M4.464 11.884l-3.779 3.443s-0.388 0.289 0 0.807l1.755 1.599s0.416 0.449 1.032-0.062l4.005-3.044-3.013-2.743zM11.097 11.912l6.929-5.303-0.045-5.306s-0.296-1.158-1.283-0.555l-9.22 8.412 3.619 2.752z"></path>
<path d="M16.901 23.212c0.402 0.413 0.89 0.277 0.89 0.277l5.4-2.666c0.691-0.473 0.594-1.059 0.594-1.059v-15.927c0-0.7-0.715-0.942-0.715-0.942l-4.68-2.261c-1.022-0.634-1.692 0.114-1.692 0.114s0.861-0.622 1.283 0.555v21.060c0 0.001 0 0.003 0 0.005 0 0.149-0.034 0.29-0.095 0.416l0.002-0.006c-0.123 0.25-0.392 0.482-1.032 0.384l0.044 0.050z"></path>
</symbol>
<symbol id="icon-windows" viewBox="0 0 24 24">
<path d="M23.625 0.307l-12.563 1.843v9.343l12.563-0.1v-11.086zM0.309 12.507v7.952l9.524 1.309-0.008-9.198-9.516-0.062zM10.963 12.635l0.017 9.275 12.633 1.783 0.003-11.037-12.653-0.020zM0.302 3.618l0.009 7.947 9.523-0.054-0.004-9.19-9.528 1.296z"></path>
</symbol>
</defs>
</svg>
